<svg id="svg" version="1.1" xmlns="http://www.w3.org/2000/svg" xmlns:xlink="http://www.w3.org/1999/xlink" width="400" height="400" viewBox="0, 0, 400,400"><g id="svgg"><path id="path0" d="M223.451 0.266 C 222.425 0.556,219.200 3.836,219.200 4.589 C 219.200 4.925,219.053 5.200,218.872 5.200 C 218.692 5.200,218.300 6.100,218.000 7.200 C 217.700 8.300,217.308 9.200,217.128 9.200 C 216.947 9.200,216.800 9.650,216.800 10.200 C 216.800 10.750,216.620 11.200,216.400 11.200 C 216.180 11.200,216.000 11.562,216.000 12.005 C 216.000 12.448,215.820 13.168,215.600 13.605 C 215.380 14.042,215.020 14.758,214.800 15.195 C 214.580 15.632,214.400 16.352,214.400 16.795 C 214.400 17.238,214.220 17.600,214.000 17.600 C 213.780 17.600,213.600 18.140,213.600 18.800 C 213.600 19.460,213.420 20.000,213.200 20.000 C 212.980 20.000,212.800 20.414,212.800 20.920 C 212.800 21.426,212.651 22.011,212.470 22.220 C 212.288 22.429,211.910 23.410,211.631 24.400 C 211.351 25.390,210.960 26.513,210.761 26.895 C 210.562 27.277,210.400 27.864,210.400 28.200 C 210.400 28.536,210.237 29.123,210.037 29.505 C 209.348 30.823,208.400 34.496,208.400 35.846 C 208.400 36.591,208.220 37.200,208.000 37.200 C 207.780 37.200,207.600 37.740,207.600 38.400 C 207.600 39.060,207.420 39.600,207.200 39.600 C 206.980 39.600,206.800 40.320,206.800 41.200 C 206.800 42.080,206.620 42.800,206.400 42.800 C 206.180 42.800,206.000 43.419,206.000 44.176 C 206.000 44.933,205.820 45.664,205.600 45.800 C 205.380 45.936,205.200 46.847,205.200 47.824 C 205.200 48.801,205.020 49.600,204.800 49.600 C 204.580 49.600,204.400 50.064,204.400 50.631 C 204.400 51.312,203.855 52.186,202.800 53.200 C 201.920 54.046,201.200 54.982,201.200 55.280 C 201.200 55.579,200.840 56.083,200.400 56.400 C 199.960 56.717,199.600 57.297,199.600 57.688 C 199.600 58.080,199.464 58.400,199.298 58.400 C 199.131 58.400,198.756 58.985,198.464 59.700 C 197.341 62.450,197.096 63.022,196.753 63.695 C 196.559 64.077,196.400 64.831,196.400 65.371 C 196.400 65.911,196.220 66.464,196.000 66.600 C 195.780 66.736,195.600 67.546,195.600 68.400 C 195.600 69.254,195.420 70.064,195.200 70.200 C 194.980 70.336,194.800 71.956,194.800 73.800 C 194.800 75.644,194.620 77.264,194.400 77.400 C 194.180 77.536,194.000 78.897,194.000 80.424 C 194.000 81.951,193.857 83.200,193.682 83.200 C 193.326 83.200,190.400 89.198,190.400 89.930 C 190.400 90.188,189.858 90.400,189.195 90.400 C 188.532 90.400,187.677 90.564,187.295 90.764 C 186.913 90.964,185.250 91.420,183.600 91.778 C 180.162 92.525,177.668 93.347,175.505 94.447 C 174.223 95.099,173.410 94.805,171.501 92.998 C 170.457 92.009,169.422 91.200,169.201 91.200 C 168.981 91.200,168.800 91.020,168.800 90.800 C 168.800 90.580,168.621 90.400,168.403 90.400 C 168.184 90.400,166.908 89.320,165.568 88.000 C 164.227 86.680,162.948 85.600,162.726 85.600 C 162.503 85.600,161.841 85.105,161.255 84.500 C 159.779 82.978,156.935 80.800,156.423 80.800 C 156.191 80.800,156.000 80.659,156.000 80.486 C 156.000 80.314,155.467 79.857,154.815 79.472 C 154.163 79.087,153.398 78.549,153.115 78.276 C 152.319 77.509,146.962 74.800,146.242 74.800 C 145.889 74.800,145.600 74.620,145.600 74.400 C 145.600 74.180,145.240 74.000,144.800 74.000 C 144.360 74.000,144.000 73.820,144.000 73.600 C 144.000 73.380,143.640 73.200,143.200 73.200 C 142.760 73.200,142.400 73.020,142.400 72.800 C 142.400 72.580,141.871 72.400,141.224 72.400 C 140.577 72.400,139.936 72.220,139.800 72.000 C 139.664 71.780,138.854 71.600,138.000 71.600 C 137.146 71.600,136.336 71.420,136.200 71.200 C 136.064 70.980,134.523 70.800,132.776 70.800 C 130.925 70.800,129.600 70.967,129.600 71.200 C 129.600 71.420,128.981 71.600,128.224 71.600 C 127.467 71.600,126.736 71.780,126.600 72.000 C 126.464 72.220,126.003 72.400,125.576 72.400 C 125.149 72.400,124.800 72.580,124.800 72.800 C 124.800 73.020,124.522 73.200,124.182 73.200 C 123.842 73.200,123.147 73.605,122.638 74.100 C 122.129 74.595,120.972 75.630,120.065 76.400 C 119.159 77.170,118.414 78.033,118.409 78.317 C 118.404 78.601,118.040 79.220,117.600 79.692 C 117.160 80.164,116.800 80.787,116.800 81.075 C 116.800 81.364,116.620 81.600,116.400 81.600 C 116.180 81.600,116.000 82.140,116.000 82.800 C 116.000 83.460,115.820 84.000,115.600 84.000 C 115.380 84.000,115.200 84.439,115.200 84.976 C 115.200 85.513,115.020 86.064,114.800 86.200 C 114.580 86.336,114.400 86.977,114.400 87.624 C 114.400 88.271,114.220 88.800,114.000 88.800 C 113.780 88.800,113.600 89.689,113.600 90.776 C 113.600 91.863,113.420 92.864,113.200 93.000 C 112.980 93.136,112.800 94.821,112.800 96.744 C 112.800 98.667,112.613 100.427,112.384 100.656 C 111.719 101.321,112.515 127.067,113.223 127.780 C 113.430 127.989,113.600 129.654,113.600 131.480 C 113.600 133.427,113.765 134.800,114.000 134.800 C 114.231 134.800,114.400 136.067,114.400 137.800 C 114.400 139.533,114.569 140.800,114.800 140.800 C 115.021 140.800,115.200 141.840,115.200 143.120 C 115.200 144.396,115.416 145.656,115.680 145.920 C 116.053 146.293,116.053 146.400,115.680 146.400 C 115.416 146.400,115.200 146.760,115.200 147.200 C 115.200 147.640,115.020 148.000,114.800 148.000 C 114.580 148.000,114.400 148.360,114.400 148.800 C 114.400 149.240,114.220 149.600,114.000 149.600 C 113.780 149.600,113.600 149.960,113.600 150.400 C 113.600 150.840,113.420 151.200,113.200 151.200 C 112.980 151.200,112.800 151.560,112.800 152.000 C 112.800 152.440,112.653 152.800,112.472 152.800 C 112.292 152.800,111.900 153.700,111.600 154.800 C 111.300 155.900,110.908 156.800,110.728 156.800 C 110.547 156.800,110.400 157.130,110.400 157.533 C 110.400 157.937,110.281 158.386,110.135 158.532 C 109.726 158.941,108.400 162.879,108.400 163.685 C 108.400 164.078,108.220 164.400,108.000 164.400 C 107.780 164.400,107.600 165.019,107.600 165.776 C 107.600 166.533,107.420 167.264,107.200 167.400 C 106.980 167.536,106.800 168.177,106.800 168.824 C 106.800 169.471,106.620 170.000,106.400 170.000 C 106.180 170.000,106.000 170.720,106.000 171.600 C 106.000 172.480,105.820 173.200,105.600 173.200 C 105.380 173.200,105.200 173.920,105.200 174.800 C 105.200 175.680,105.020 176.400,104.800 176.400 C 104.580 176.400,104.400 177.199,104.400 178.176 C 104.400 179.153,104.220 180.064,104.000 180.200 C 103.780 180.336,103.600 181.506,103.600 182.800 C 103.600 184.094,103.420 185.264,103.200 185.400 C 102.980 185.536,102.800 187.246,102.800 189.200 C 102.800 191.154,102.620 192.864,102.400 193.000 C 102.157 193.150,102.000 196.137,102.000 200.624 C 102.000 205.275,102.148 208.000,102.400 208.000 C 102.658 208.000,102.800 212.600,102.800 221.000 C 102.800 229.400,102.658 234.000,102.400 234.000 C 102.163 234.000,102.000 235.467,102.000 237.600 C 102.000 239.733,101.837 241.200,101.600 241.200 C 101.374 241.200,101.200 242.333,101.200 243.800 C 101.200 245.267,101.026 246.400,100.800 246.400 C 100.580 246.400,100.400 247.300,100.400 248.400 C 100.400 249.500,100.220 250.400,100.000 250.400 C 99.780 250.400,99.600 251.199,99.600 252.176 C 99.600 253.153,99.420 254.064,99.200 254.200 C 98.980 254.336,98.800 254.966,98.800 255.600 C 98.800 256.234,98.620 256.864,98.400 257.000 C 98.180 257.136,98.000 257.856,98.000 258.600 C 98.000 259.344,97.820 260.064,97.600 260.200 C 97.380 260.336,97.200 260.977,97.200 261.624 C 97.200 262.271,97.020 262.800,96.800 262.800 C 96.580 262.800,96.400 263.340,96.400 264.000 C 96.400 264.660,96.220 265.200,96.000 265.200 C 95.780 265.200,95.600 265.652,95.600 266.205 C 95.600 266.758,95.438 267.523,95.239 267.905 C 95.040 268.287,94.663 269.410,94.400 270.400 C 94.137 271.390,93.760 272.513,93.561 272.895 C 93.362 273.277,93.200 274.012,93.200 274.528 C 93.200 275.044,93.065 275.601,92.900 275.765 C 92.533 276.131,91.612 280.314,91.330 282.900 C 91.216 283.945,90.960 284.800,90.761 284.800 C 90.563 284.800,90.400 285.520,90.400 286.400 C 90.400 287.280,90.220 288.000,90.000 288.000 C 89.780 288.000,89.600 288.979,89.600 290.176 C 89.600 291.373,89.420 292.464,89.200 292.600 C 88.980 292.736,88.800 293.827,88.800 295.024 C 88.800 296.221,88.620 297.200,88.400 297.200 C 88.167 297.200,88.000 298.533,88.000 300.400 C 88.000 302.267,87.833 303.600,87.600 303.600 C 87.355 303.600,87.200 305.533,87.200 308.600 C 87.200 311.667,87.045 313.600,86.800 313.600 C 86.545 313.600,86.400 316.867,86.400 322.600 C 86.400 328.333,86.545 331.600,86.800 331.600 C 87.045 331.600,87.200 333.522,87.200 336.567 C 87.200 340.166,87.338 341.589,87.700 341.735 C 88.025 341.866,87.977 341.948,87.564 341.968 C 86.785 342.007,83.610 339.009,82.832 337.500 C 82.520 336.895,82.115 336.400,81.932 336.400 C 81.750 336.400,81.600 336.040,81.600 335.600 C 81.600 335.160,81.465 334.799,81.300 334.797 C 80.941 334.793,80.000 332.856,80.000 332.120 C 80.000 331.834,79.820 331.600,79.600 331.600 C 79.380 331.600,79.200 330.880,79.200 330.000 C 79.200 329.120,79.020 328.400,78.800 328.400 C 78.541 328.400,78.400 323.467,78.400 314.400 C 78.400 305.333,78.259 300.400,78.000 300.400 C 77.780 300.400,77.600 299.770,77.600 299.000 C 77.600 298.230,77.420 297.600,77.200 297.600 C 76.980 297.600,76.800 297.150,76.800 296.600 C 76.800 296.050,76.620 295.600,76.400 295.600 C 76.180 295.600,76.000 295.240,76.000 294.800 C 76.000 294.360,75.843 294.000,75.650 294.000 C 75.458 294.000,75.200 293.505,75.077 292.900 C 74.955 292.295,74.523 291.440,74.117 291.000 C 73.711 290.560,72.942 289.570,72.408 288.800 C 71.875 288.030,71.130 287.130,70.753 286.800 C 69.057 285.315,68.369 284.800,68.084 284.800 C 67.915 284.800,67.517 284.440,67.200 284.000 C 66.883 283.560,66.303 283.200,65.912 283.200 C 65.520 283.200,65.200 283.020,65.200 282.800 C 65.200 282.580,64.840 282.400,64.400 282.400 C 63.960 282.400,63.600 282.220,63.600 282.000 C 63.600 281.780,63.240 281.600,62.800 281.600 C 62.360 281.600,62.000 281.464,62.000 281.297 C 62.000 280.931,59.133 280.000,58.006 280.000 C 57.563 280.000,57.200 279.820,57.200 279.600 C 57.200 279.351,54.941 279.200,51.224 279.200 C 47.671 279.200,45.147 279.362,45.000 279.600 C 44.864 279.820,44.234 280.000,43.600 280.000 C 42.966 280.000,42.336 280.180,42.200 280.400 C 42.064 280.620,41.603 280.800,41.176 280.800 C 40.749 280.800,40.400 280.980,40.400 281.200 C 40.400 281.420,40.040 281.600,39.600 281.600 C 39.160 281.600,38.800 281.780,38.800 282.000 C 38.800 282.220,38.440 282.400,38.000 282.400 C 37.560 282.400,37.200 282.580,37.200 282.800 C 37.200 283.020,36.928 283.200,36.596 283.200 C 36.264 283.200,35.428 283.740,34.737 284.400 C 34.046 285.060,33.322 285.600,33.127 285.600 C 32.666 285.600,30.000 288.266,30.000 288.727 C 30.000 288.922,29.505 289.604,28.900 290.243 C 27.119 292.124,24.800 297.333,24.800 299.450 C 24.800 299.973,24.620 300.400,24.400 300.400 C 23.902 300.400,23.842 335.055,24.340 335.363 C 24.526 335.478,24.791 337.026,24.928 338.802 C 25.065 340.578,25.377 342.790,25.620 343.716 C 25.864 344.642,26.247 346.120,26.471 347.000 C 26.695 347.880,27.040 348.913,27.239 349.295 C 27.438 349.677,27.600 350.341,27.600 350.771 C 27.600 351.201,27.780 351.664,28.000 351.800 C 28.220 351.936,28.400 352.397,28.400 352.824 C 28.400 353.251,28.580 353.600,28.800 353.600 C 29.020 353.600,29.200 353.943,29.200 354.362 C 29.200 355.178,30.801 358.512,31.300 358.733 C 31.465 358.807,31.600 359.212,31.600 359.633 C 31.600 360.055,31.780 360.400,32.000 360.400 C 32.220 360.400,32.400 360.760,32.400 361.200 C 32.400 361.640,32.580 362.000,32.800 362.000 C 33.020 362.000,33.200 362.360,33.200 362.800 C 33.200 363.240,33.380 363.600,33.600 363.600 C 33.820 363.600,34.000 363.836,34.000 364.125 C 34.000 364.413,34.360 365.036,34.800 365.508 C 35.240 365.980,35.600 366.604,35.600 366.895 C 35.600 367.186,35.960 367.683,36.400 368.000 C 36.840 368.317,37.200 368.807,37.200 369.088 C 37.200 369.370,37.380 369.600,37.600 369.600 C 37.820 369.600,38.000 369.830,38.000 370.112 C 38.000 370.393,38.360 370.883,38.800 371.200 C 39.240 371.517,39.600 371.915,39.600 372.084 C 39.600 372.830,51.321 384.800,52.052 384.800 C 52.287 384.800,52.983 385.340,53.600 386.000 C 54.217 386.660,54.969 387.200,55.272 387.200 C 55.575 387.200,56.083 387.560,56.400 388.000 C 56.717 388.440,57.282 388.800,57.655 388.800 C 58.028 388.800,58.393 388.935,58.467 389.100 C 58.746 389.729,61.244 391.229,62.396 391.459 C 63.058 391.592,63.600 391.858,63.600 392.050 C 63.600 392.243,63.870 392.400,64.200 392.400 C 64.530 392.400,64.800 392.580,64.800 392.800 C 64.800 393.020,65.250 393.200,65.800 393.200 C 66.350 393.200,66.800 393.380,66.800 393.600 C 66.800 393.820,67.160 394.000,67.600 394.000 C 68.040 394.000,68.400 394.180,68.400 394.400 C 68.400 394.620,68.760 394.800,69.200 394.800 C 69.640 394.800,70.000 394.980,70.000 395.200 C 70.000 395.420,70.540 395.600,71.200 395.600 C 71.860 395.600,72.400 395.780,72.400 396.000 C 72.400 396.220,72.839 396.400,73.376 396.400 C 73.913 396.400,74.464 396.580,74.600 396.800 C 74.736 397.020,75.287 397.200,75.824 397.200 C 76.361 397.200,76.800 397.380,76.800 397.600 C 76.800 397.820,77.329 398.000,77.976 398.000 C 78.623 398.000,79.264 398.180,79.400 398.400 C 79.536 398.620,80.321 398.800,81.144 398.800 C 81.967 398.800,82.865 399.025,83.140 399.300 C 83.875 400.035,328.855 400.035,329.100 399.300 C 329.196 399.013,329.936 398.800,330.833 398.800 C 331.695 398.800,332.400 398.620,332.400 398.400 C 332.400 398.180,332.940 398.000,333.600 398.000 C 334.260 398.000,334.800 397.820,334.800 397.600 C 334.800 397.380,335.160 397.200,335.600 397.200 C 336.040 397.200,336.400 397.020,336.400 396.800 C 336.400 396.580,336.760 396.400,337.200 396.400 C 337.640 396.400,338.000 396.220,338.000 396.000 C 338.000 395.780,338.360 395.600,338.800 395.600 C 339.240 395.600,339.600 395.420,339.600 395.200 C 339.600 394.980,339.830 394.800,340.112 394.800 C 340.393 394.800,340.883 394.440,341.200 394.000 C 341.517 393.560,342.013 393.200,342.303 393.200 C 342.869 393.200,343.273 392.865,347.100 389.223 C 348.475 387.915,349.600 386.604,349.600 386.310 C 349.600 386.017,349.960 385.517,350.400 385.200 C 350.840 384.883,351.200 384.303,351.200 383.912 C 351.200 383.520,351.380 383.200,351.600 383.200 C 351.820 383.200,352.000 382.840,352.000 382.400 C 352.000 381.960,352.180 381.600,352.400 381.600 C 352.620 381.600,352.800 381.240,352.800 380.800 C 352.800 380.360,352.980 380.000,353.200 380.000 C 353.420 380.000,353.600 379.460,353.600 378.800 C 353.600 378.140,353.780 377.600,354.000 377.600 C 354.220 377.600,354.400 376.700,354.400 375.600 C 354.400 374.445,354.581 373.600,354.828 373.600 C 355.566 373.600,354.764 363.472,353.959 362.620 C 353.762 362.411,353.600 361.826,353.600 361.320 C 353.600 360.814,353.420 360.400,353.200 360.400 C 352.980 360.400,352.800 359.950,352.800 359.400 C 352.800 358.850,352.620 358.400,352.400 358.400 C 352.180 358.400,352.000 358.164,352.000 357.875 C 352.000 357.587,351.640 356.964,351.200 356.492 C 350.760 356.020,350.400 355.428,350.400 355.177 C 350.400 354.926,349.860 354.217,349.200 353.600 C 348.540 352.983,348.000 352.326,348.000 352.140 C 347.999 351.601,346.327 349.851,344.800 348.790 C 342.068 346.892,341.600 346.197,341.600 344.042 C 341.600 342.945,341.780 341.936,342.000 341.800 C 342.229 341.659,342.400 339.604,342.400 337.000 C 342.400 334.396,342.571 332.341,342.800 332.200 C 343.048 332.047,343.200 328.396,343.200 322.576 C 343.200 316.592,343.055 313.200,342.800 313.200 C 342.556 313.200,342.400 311.341,342.400 308.424 C 342.400 305.797,342.247 303.553,342.061 303.438 C 341.874 303.322,341.597 301.027,341.445 298.336 C 341.293 295.646,341.014 293.254,340.825 293.022 C 340.637 292.790,340.379 291.700,340.252 290.600 C 339.724 286.022,339.503 284.800,339.200 284.800 C 339.024 284.800,338.781 284.035,338.659 283.100 C 338.234 279.840,337.909 278.391,337.556 278.173 C 337.360 278.052,337.200 277.423,337.200 276.776 C 337.200 276.129,337.020 275.600,336.800 275.600 C 336.580 275.600,336.400 274.981,336.400 274.224 C 336.400 273.467,336.220 272.736,336.000 272.600 C 335.780 272.464,335.600 271.823,335.600 271.176 C 335.600 270.529,335.420 270.000,335.200 270.000 C 334.980 270.000,334.800 269.460,334.800 268.800 C 334.800 268.140,334.620 267.600,334.400 267.600 C 334.180 267.600,334.000 266.981,334.000 266.224 C 334.000 265.467,333.820 264.736,333.600 264.600 C 333.380 264.464,333.200 263.823,333.200 263.176 C 333.200 262.529,333.020 262.000,332.800 262.000 C 332.580 262.000,332.400 261.291,332.400 260.424 C 332.400 259.557,332.220 258.736,332.000 258.600 C 331.780 258.464,331.600 257.643,331.600 256.776 C 331.600 255.909,331.420 255.200,331.200 255.200 C 330.980 255.200,330.800 254.300,330.800 253.200 C 330.800 252.100,330.620 251.200,330.400 251.200 C 330.180 251.200,330.000 250.210,330.000 249.000 C 330.000 247.790,329.820 246.800,329.600 246.800 C 329.371 246.800,329.200 245.600,329.200 244.000 C 329.200 242.400,329.029 241.200,328.800 241.200 C 328.557 241.200,328.400 239.408,328.400 236.624 C 328.400 234.004,328.229 231.942,328.000 231.800 C 327.760 231.651,327.600 228.929,327.600 224.976 C 327.600 220.859,327.750 218.400,328.000 218.400 C 328.248 218.400,328.400 216.267,328.400 212.800 C 328.400 209.333,328.552 207.200,328.800 207.200 C 329.050 207.200,329.200 204.808,329.200 200.824 C 329.200 197.004,329.040 194.348,328.800 194.200 C 328.575 194.061,328.400 192.129,328.400 189.776 C 328.400 187.259,328.241 185.600,328.000 185.600 C 327.774 185.600,327.600 184.467,327.600 183.000 C 327.600 181.533,327.426 180.400,327.200 180.400 C 326.980 180.400,326.800 179.500,326.800 178.400 C 326.800 177.300,326.620 176.400,326.400 176.400 C 326.180 176.400,326.000 175.680,326.000 174.800 C 326.000 173.920,325.846 173.200,325.657 173.200 C 325.468 173.200,325.197 172.083,325.054 170.718 C 324.912 169.352,324.616 168.056,324.398 167.838 C 324.179 167.619,324.000 167.037,324.000 166.544 C 324.000 166.051,323.820 165.536,323.600 165.400 C 323.380 165.264,323.200 164.724,323.200 164.200 C 323.200 163.676,323.020 163.136,322.800 163.000 C 322.580 162.864,322.400 162.401,322.400 161.971 C 322.400 161.541,322.220 160.832,322.000 160.395 C 321.780 159.958,321.420 159.242,321.200 158.805 C 320.980 158.368,320.800 157.738,320.800 157.405 C 320.800 157.072,320.620 156.800,320.400 156.800 C 320.180 156.800,320.000 156.440,320.000 156.000 C 320.000 155.560,319.820 155.200,319.600 155.200 C 319.380 155.200,319.201 154.885,319.203 154.500 C 319.207 153.725,315.986 147.078,315.504 146.867 C 315.337 146.793,315.200 146.478,315.200 146.167 C 315.200 145.855,315.020 145.600,314.800 145.600 C 314.580 145.600,314.400 145.240,314.400 144.800 C 314.400 144.360,314.220 144.000,314.000 144.000 C 313.780 144.000,313.600 143.730,313.600 143.400 C 313.600 143.070,313.420 142.800,313.200 142.800 C 312.980 142.800,312.800 142.564,312.800 142.275 C 312.800 141.987,312.440 141.364,312.000 140.892 C 311.560 140.420,311.200 139.771,311.200 139.450 C 311.200 139.129,310.975 138.762,310.700 138.633 C 310.300 138.447,310.300 138.353,310.700 138.167 C 311.038 138.009,311.200 136.914,311.200 134.790 C 311.200 133.062,311.380 131.536,311.600 131.400 C 311.825 131.261,312.000 129.329,312.000 126.976 C 312.000 124.459,312.159 122.800,312.400 122.800 C 312.659 122.800,312.800 118.133,312.800 109.600 C 312.800 101.067,312.659 96.400,312.400 96.400 C 312.174 96.400,312.000 95.267,312.000 93.800 C 312.000 92.333,311.826 91.200,311.600 91.200 C 311.380 91.200,311.200 90.300,311.200 89.200 C 311.200 88.100,311.020 87.200,310.800 87.200 C 310.580 87.200,310.400 86.660,310.400 86.000 C 310.400 85.340,310.220 84.800,310.000 84.800 C 309.780 84.800,309.600 84.361,309.600 83.824 C 309.600 83.287,309.420 82.736,309.200 82.600 C 308.980 82.464,308.800 82.046,308.800 81.671 C 308.800 80.244,304.985 75.398,303.100 74.430 C 302.495 74.119,302.000 73.715,302.000 73.532 C 302.000 73.350,301.640 73.200,301.200 73.200 C 300.760 73.200,300.400 73.020,300.400 72.800 C 300.400 72.580,300.040 72.400,299.600 72.400 C 299.160 72.400,298.800 72.220,298.800 72.000 C 298.800 71.780,298.080 71.600,297.200 71.600 C 296.320 71.600,295.600 71.420,295.600 71.200 C 295.600 70.969,294.333 70.800,292.600 70.800 C 290.867 70.800,289.600 70.969,289.600 71.200 C 289.600 71.420,288.700 71.600,287.600 71.600 C 286.500 71.600,285.600 71.780,285.600 72.000 C 285.600 72.220,285.060 72.400,284.400 72.400 C 283.740 72.400,283.200 72.580,283.200 72.800 C 283.200 73.020,282.761 73.200,282.224 73.200 C 281.687 73.200,281.136 73.380,281.000 73.600 C 280.864 73.820,280.403 74.000,279.976 74.000 C 279.549 74.000,279.199 74.135,279.199 74.300 C 279.198 74.465,278.388 74.933,277.399 75.340 C 276.409 75.746,275.600 76.241,275.600 76.440 C 275.600 76.638,275.322 76.800,274.983 76.800 C 274.644 76.800,273.980 77.160,273.508 77.600 C 273.036 78.040,272.413 78.400,272.125 78.400 C 271.836 78.400,271.600 78.568,271.600 78.773 C 271.600 78.978,271.234 79.262,270.787 79.404 C 270.340 79.546,269.538 80.098,269.005 80.631 C 268.472 81.164,267.830 81.600,267.579 81.600 C 267.327 81.600,266.617 82.140,266.000 82.800 C 265.383 83.460,264.699 84.000,264.480 84.000 C 264.261 84.000,263.162 84.900,262.039 86.000 C 260.915 87.100,259.903 88.000,259.789 88.000 C 259.676 88.000,258.607 88.945,257.415 90.100 C 256.224 91.255,254.975 92.425,254.641 92.700 C 253.949 93.270,251.755 93.375,251.433 92.853 C 251.315 92.662,250.298 92.383,249.174 92.234 C 245.551 91.754,245.600 91.851,245.600 85.104 C 245.600 81.435,245.449 79.200,245.200 79.200 C 244.980 79.200,244.800 78.480,244.800 77.600 C 244.800 76.720,244.620 76.000,244.400 76.000 C 244.180 76.000,244.000 75.385,244.000 74.633 C 244.000 73.882,243.775 73.162,243.500 73.033 C 243.100 72.847,243.100 72.753,243.500 72.567 C 243.775 72.438,244.000 71.639,244.000 70.790 C 244.000 69.942,244.180 69.136,244.400 69.000 C 244.643 68.850,244.800 65.929,244.800 61.576 C 244.800 57.059,244.652 54.400,244.400 54.400 C 244.180 54.400,244.000 53.680,244.000 52.800 C 244.000 51.920,243.820 51.200,243.600 51.200 C 243.380 51.200,243.200 50.660,243.200 50.000 C 243.200 49.340,243.020 48.800,242.800 48.800 C 242.580 48.800,242.400 48.260,242.400 47.600 C 242.400 46.940,242.220 46.400,242.000 46.400 C 241.772 46.400,241.600 45.208,241.600 43.624 C 241.600 42.097,241.780 40.736,242.000 40.600 C 242.220 40.464,242.400 38.844,242.400 37.000 C 242.400 35.156,242.220 33.536,242.000 33.400 C 241.772 33.259,241.585 31.056,241.565 28.276 C 241.531 23.452,241.210 19.419,240.397 13.600 C 240.167 11.950,239.876 9.745,239.750 8.700 C 239.625 7.655,239.360 6.800,239.161 6.800 C 238.963 6.800,238.800 6.374,238.800 5.854 C 238.800 5.248,237.987 4.061,236.539 2.554 L 234.278 0.200 229.239 0.127 C 226.467 0.087,223.863 0.150,223.451 0.266 M225.618 42.201 C 225.250 46.795,225.148 47.087,223.728 47.628 C 221.843 48.344,221.862 48.149,224.634 38.441 C 225.640 34.913,226.070 36.554,225.618 42.201 M228.514 58.200 C 229.028 60.571,228.610 65.432,227.628 68.506 C 226.643 71.593,227.634 70.929,217.402 75.355 C 210.546 78.321,210.641 78.343,211.405 74.000 C 212.848 65.796,216.183 61.182,222.853 58.162 C 227.467 56.073,228.054 56.077,228.514 58.200 M229.167 82.820 C 230.161 87.455,229.172 96.814,227.600 97.645 C 227.068 97.926,225.426 98.625,223.000 99.604 C 222.560 99.782,220.490 100.589,218.400 101.397 C 216.310 102.206,214.060 103.103,213.400 103.389 C 212.339 103.850,209.822 104.816,204.100 106.957 L 202.400 107.594 202.414 106.297 C 202.428 105.056,203.071 102.116,203.952 99.263 C 205.039 95.746,209.845 88.844,211.800 87.993 C 213.417 87.289,216.718 85.818,219.412 84.600 C 220.628 84.050,221.704 83.600,221.802 83.600 C 221.900 83.600,223.109 83.086,224.490 82.459 C 227.184 81.234,228.046 80.881,228.467 80.832 C 228.614 80.814,228.929 81.709,229.167 82.820 M138.854 89.337 C 143.350 91.631,153.710 98.949,155.600 101.165 C 155.710 101.294,156.610 102.103,157.600 102.963 C 158.590 103.822,161.131 106.195,163.247 108.235 C 167.284 112.128,169.094 113.200,171.630 113.200 C 173.074 113.200,173.652 113.034,176.600 111.775 C 181.986 109.474,185.634 108.269,186.003 108.668 C 186.173 108.851,186.396 111.340,186.500 114.200 C 186.859 124.064,192.903 130.956,203.588 133.685 C 204.365 133.883,205.630 134.219,206.400 134.431 C 214.205 136.581,225.693 136.529,232.200 134.313 C 241.913 131.005,245.475 125.769,246.224 113.700 C 246.549 108.451,246.252 108.650,251.146 110.402 C 256.003 112.141,258.393 111.764,261.600 108.750 C 268.160 102.586,269.953 100.984,273.243 98.348 C 281.068 92.076,288.782 87.600,291.766 87.600 C 297.111 87.600,298.218 109.110,294.355 137.880 C 293.781 142.159,294.046 143.488,296.097 146.600 C 297.298 148.423,298.603 150.570,300.475 153.800 C 310.148 170.489,314.105 191.111,312.025 214.000 C 310.510 230.676,312.810 252.290,318.007 270.200 C 318.198 270.860,318.529 272.030,318.743 272.800 C 318.956 273.570,319.778 276.450,320.568 279.200 C 322.625 286.353,322.690 286.604,323.574 290.800 C 326.381 304.114,327.524 321.969,326.391 334.800 C 325.776 341.764,326.280 341.111,321.689 340.890 C 308.356 340.248,307.710 355.315,321.022 356.441 C 340.357 358.076,344.885 376.064,327.590 382.538 C 322.984 384.262,318.840 384.400,271.866 384.400 C 224.175 384.400,226.665 384.520,228.085 382.297 C 233.156 374.355,231.937 362.198,225.228 353.790 C 216.537 342.898,196.296 336.903,190.694 343.561 C 186.294 348.791,190.285 356.400,197.429 356.400 C 207.133 356.400,215.987 363.352,215.513 370.600 C 215.038 377.851,208.388 382.794,197.516 383.977 C 191.538 384.628,116.227 384.556,115.682 383.899 C 115.453 383.623,114.877 382.408,114.402 381.199 C 113.927 379.990,113.294 378.460,112.997 377.800 C 110.136 371.448,105.956 355.063,104.426 344.200 C 102.984 333.965,102.565 316.071,103.568 307.600 C 105.341 292.646,107.164 284.537,112.381 268.400 C 113.942 263.573,115.143 258.712,116.383 252.200 C 118.721 239.919,119.376 230.117,118.932 214.000 C 118.445 196.260,118.642 191.769,120.343 182.000 C 121.683 174.299,124.504 166.197,129.116 156.800 C 132.814 149.266,132.916 148.836,132.054 144.400 C 131.559 141.856,131.242 139.673,130.368 132.800 C 129.359 124.870,129.193 122.481,128.952 112.507 C 128.634 99.294,129.229 93.632,131.419 89.016 C 132.399 86.950,134.341 87.034,138.854 89.337 M230.622 109.005 C 230.918 110.980,230.571 115.503,229.978 117.402 C 228.895 120.871,216.232 121.497,207.600 118.509 C 204.123 117.305,204.489 117.057,217.200 111.984 C 231.004 106.475,230.267 106.638,230.622 109.005 M211.690 167.572 C 210.801 168.461,210.458 169.254,210.267 170.860 C 209.463 177.653,205.951 181.325,199.141 182.493 C 193.390 183.479,191.795 188.874,196.572 191.186 C 197.970 191.863,198.306 192.275,198.779 193.892 C 204.031 211.831,226.600 210.593,231.444 192.100 C 231.516 191.825,231.954 191.600,232.418 191.600 C 233.480 191.600,235.475 189.638,235.823 188.251 C 236.570 185.273,234.802 183.331,230.624 182.542 C 224.020 181.295,219.600 176.814,219.600 171.365 C 219.600 166.999,214.641 164.621,211.690 167.572 M162.981 170.930 C 152.647 174.912,154.858 189.378,165.800 189.378 C 176.660 189.378,178.792 174.432,168.440 170.868 C 166.755 170.288,164.584 170.313,162.981 170.930 M260.200 171.219 C 249.872 176.248,254.789 191.567,265.962 189.171 C 273.429 187.569,275.923 177.921,270.178 172.864 C 267.325 170.353,263.331 169.694,260.200 171.219 M216.625 185.642 C 217.271 186.325,218.812 187.576,220.048 188.422 C 222.587 190.158,222.712 190.868,220.964 193.650 C 217.682 198.873,211.078 198.532,208.400 193.000 C 207.336 190.802,207.553 189.582,209.130 188.891 C 209.769 188.610,211.261 187.492,212.446 186.405 C 215.000 184.062,215.111 184.042,216.625 185.642 M290.389 268.282 C 288.037 269.903,287.892 272.027,289.779 277.200 C 293.070 286.225,289.642 296.288,282.440 298.738 C 275.933 300.951,266.335 295.920,262.414 288.241 C 260.683 284.850,258.200 283.655,255.640 284.980 C 251.972 286.876,252.557 290.845,257.449 297.248 C 269.419 312.914,291.602 311.799,298.173 295.200 C 303.166 282.586,297.594 263.316,290.389 268.282 M191.368 275.954 C 188.891 277.465,188.732 279.278,190.629 284.400 C 194.799 295.659,189.065 307.200,179.301 307.200 C 174.369 307.200,167.500 302.766,164.385 297.572 C 161.710 293.112,161.152 292.610,158.727 292.481 C 154.818 292.274,152.817 295.902,154.863 299.488 C 155.337 300.320,155.923 301.360,156.164 301.800 C 157.263 303.807,160.176 307.307,162.286 309.157 C 179.216 323.996,200.891 314.497,200.979 292.200 C 200.999 287.293,200.867 286.379,199.513 282.000 C 197.662 276.019,194.776 273.876,191.368 275.954 M55.965 296.582 C 60.271 298.809,62.094 302.110,62.324 308.100 L 62.488 312.400 51.200 312.400 L 39.912 312.400 40.076 308.100 C 40.445 298.489,48.442 292.691,55.965 296.582 M62.470 326.800 C 62.619 329.550,62.904 332.430,63.104 333.200 C 63.751 335.685,64.126 335.601,52.467 335.594 C 46.600 335.591,41.574 335.444,41.299 335.269 C 40.204 334.574,39.472 322.283,40.500 321.862 C 40.775 321.749,45.770 321.689,51.600 321.728 L 62.200 321.800 62.470 326.800 M67.013 344.629 C 67.460 344.750,68.336 345.654,68.960 346.640 C 72.598 352.390,81.595 358.759,88.692 360.607 C 91.679 361.385,91.827 361.572,92.982 366.013 C 94.245 370.866,96.037 376.652,97.360 380.148 C 99.103 384.752,98.467 385.149,91.246 383.967 C 70.328 380.543,54.546 369.159,46.012 351.337 C 45.081 349.392,44.157 347.487,43.959 347.105 C 43.536 346.288,43.489 345.044,43.867 344.667 C 44.184 344.349,65.839 344.314,67.013 344.629 " stroke="none" fill="#3d152e" fill-rule="evenodd"></path><path id="path1" d="M39.017 2.524 C 37.605 3.383,37.200 3.928,37.200 4.971 C 37.200 5.537,37.053 6.000,36.872 6.000 C 36.692 6.000,36.296 6.911,35.993 8.025 C 35.690 9.139,35.297 10.140,35.121 10.249 C 34.944 10.358,34.800 10.887,34.800 11.424 C 34.800 11.961,34.620 12.400,34.400 12.400 C 34.180 12.400,34.000 12.850,34.000 13.400 C 34.000 13.950,33.820 14.400,33.600 14.400 C 33.380 14.400,33.200 14.852,33.200 15.405 C 33.200 15.958,33.020 16.768,32.800 17.205 C 31.916 18.962,31.712 19.476,31.180 21.300 C 30.875 22.345,30.474 23.200,30.289 23.200 C 30.104 23.200,30.057 23.369,30.185 23.576 C 30.450 24.004,28.883 25.600,28.199 25.600 C 27.952 25.600,26.817 26.050,25.677 26.600 C 24.537 27.150,23.348 27.600,23.035 27.600 C 22.723 27.600,22.407 27.742,22.333 27.915 C 22.170 28.301,18.106 30.000,17.347 30.000 C 17.046 30.000,16.800 30.136,16.800 30.302 C 16.800 30.469,16.215 30.844,15.500 31.136 C 11.347 32.833,10.400 33.760,10.400 36.132 C 10.400 38.481,13.805 42.062,14.950 40.916 C 15.088 40.779,15.200 40.877,15.200 41.133 C 15.200 41.390,15.472 41.600,15.805 41.600 C 16.138 41.600,16.813 41.808,17.305 42.062 C 19.182 43.033,19.607 43.200,20.195 43.200 C 20.528 43.200,20.800 43.380,20.800 43.600 C 20.800 43.820,21.160 44.000,21.600 44.000 C 22.040 44.000,22.400 44.180,22.400 44.400 C 22.400 44.620,22.760 44.800,23.200 44.800 C 23.640 44.800,24.000 44.980,24.000 45.200 C 24.000 45.420,24.362 45.600,24.805 45.600 C 25.576 45.600,27.178 46.319,27.600 46.854 C 27.710 46.993,28.153 47.174,28.583 47.256 C 29.523 47.434,31.512 50.934,31.564 52.500 C 31.584 53.105,31.780 53.600,32.000 53.600 C 32.220 53.600,32.400 53.962,32.400 54.405 C 32.400 54.848,32.580 55.568,32.800 56.005 C 33.020 56.442,33.380 57.158,33.600 57.595 C 33.820 58.032,34.000 58.842,34.000 59.395 C 34.000 59.948,34.180 60.400,34.400 60.400 C 34.620 60.400,34.800 60.749,34.800 61.176 C 34.800 61.603,34.980 62.064,35.200 62.200 C 35.420 62.336,35.600 62.887,35.600 63.424 C 35.600 63.961,35.780 64.400,36.000 64.400 C 36.220 64.400,36.400 64.940,36.400 65.600 C 36.400 66.260,36.580 66.800,36.800 66.800 C 37.020 66.800,37.200 67.222,37.200 67.738 C 37.200 69.163,38.406 70.000,40.459 70.000 C 42.523 70.000,44.000 68.737,44.000 66.973 C 44.000 66.395,44.173 66.060,44.400 66.200 C 44.627 66.340,44.800 66.004,44.800 65.424 C 44.800 64.861,44.980 64.400,45.200 64.400 C 45.420 64.400,45.600 63.860,45.600 63.200 C 45.600 62.540,45.780 62.000,46.000 62.000 C 46.220 62.000,46.400 61.460,46.400 60.800 C 46.400 60.140,46.580 59.600,46.800 59.600 C 47.020 59.600,47.200 59.060,47.200 58.400 C 47.200 57.740,47.380 57.200,47.600 57.200 C 47.820 57.200,48.000 56.750,48.000 56.200 C 48.000 55.650,48.180 55.200,48.400 55.200 C 48.620 55.200,48.800 54.750,48.800 54.200 C 48.800 53.650,48.980 53.200,49.200 53.200 C 49.420 53.200,49.600 52.761,49.600 52.224 C 49.600 51.687,49.780 51.136,50.000 51.000 C 50.220 50.864,50.400 50.396,50.400 49.960 C 50.400 48.630,53.059 46.400,54.646 46.400 C 54.951 46.400,55.200 46.220,55.200 46.000 C 55.200 45.780,55.650 45.600,56.200 45.600 C 56.750 45.600,57.200 45.420,57.200 45.200 C 57.200 44.980,57.560 44.800,58.000 44.800 C 58.440 44.800,58.800 44.620,58.800 44.400 C 58.800 44.180,59.160 44.000,59.600 44.000 C 60.040 44.000,60.400 43.820,60.400 43.600 C 60.400 43.380,60.760 43.200,61.200 43.200 C 61.640 43.200,62.000 43.020,62.000 42.800 C 62.000 42.580,62.450 42.400,63.000 42.400 C 63.550 42.400,64.000 42.220,64.000 42.000 C 64.000 41.780,64.282 41.600,64.626 41.600 C 65.600 41.600,69.698 39.616,70.265 38.870 C 71.654 37.043,70.210 32.400,68.253 32.400 C 67.894 32.400,67.600 32.220,67.600 32.000 C 67.600 31.780,67.341 31.600,67.024 31.600 C 66.707 31.600,65.407 31.060,64.135 30.400 C 62.863 29.740,61.677 29.200,61.500 29.200 C 61.322 29.200,59.877 28.591,58.289 27.846 C 56.700 27.102,54.540 26.120,53.489 25.664 C 51.211 24.676,50.400 23.938,50.400 22.852 C 50.400 22.409,50.220 21.936,50.000 21.800 C 49.780 21.664,49.600 21.124,49.600 20.600 C 49.600 20.076,49.420 19.536,49.200 19.400 C 48.980 19.264,48.800 18.801,48.800 18.371 C 48.800 17.941,48.592 17.187,48.338 16.695 C 47.342 14.769,47.200 14.383,47.200 13.605 C 47.200 13.162,47.020 12.800,46.800 12.800 C 46.580 12.800,46.400 12.361,46.400 11.824 C 46.400 11.287,46.220 10.736,46.000 10.600 C 45.780 10.464,45.600 9.913,45.600 9.376 C 45.600 8.839,45.420 8.400,45.200 8.400 C 44.980 8.400,44.800 7.961,44.800 7.424 C 44.800 6.887,44.620 6.336,44.400 6.200 C 44.180 6.064,44.000 5.603,44.000 5.176 C 44.000 4.749,43.820 4.400,43.600 4.400 C 43.380 4.400,43.200 4.040,43.200 3.600 C 43.200 3.067,42.933 2.800,42.400 2.800 C 41.960 2.800,41.600 2.620,41.600 2.400 C 41.600 1.858,39.983 1.936,39.017 2.524 M365.162 28.300 C 364.202 29.496,363.600 30.756,363.600 31.571 C 363.600 32.001,363.420 32.464,363.200 32.600 C 362.980 32.736,362.800 33.276,362.800 33.800 C 362.800 34.324,362.641 34.851,362.448 34.970 C 362.254 35.090,361.999 35.596,361.880 36.094 C 361.034 39.658,359.239 43.843,358.361 44.299 C 355.817 45.619,352.203 47.200,351.729 47.200 C 351.438 47.200,351.200 47.380,351.200 47.600 C 351.200 47.820,350.840 48.000,350.400 48.000 C 349.960 48.000,349.600 48.180,349.600 48.400 C 349.600 48.620,349.251 48.800,348.824 48.800 C 348.397 48.800,347.936 48.980,347.800 49.200 C 347.664 49.420,347.216 49.600,346.805 49.600 C 345.785 49.600,344.400 51.461,344.400 52.832 C 344.400 54.482,345.784 55.689,349.600 57.366 C 351.470 58.187,353.313 59.026,353.695 59.230 C 354.077 59.433,354.662 59.600,354.995 59.600 C 355.328 59.600,355.600 59.780,355.600 60.000 C 355.600 60.220,356.050 60.400,356.600 60.400 C 357.150 60.400,357.600 60.580,357.600 60.800 C 357.600 61.020,357.862 61.200,358.181 61.200 C 358.782 61.200,360.400 64.388,360.400 65.571 C 360.400 65.939,360.549 66.411,360.730 66.620 C 360.912 66.829,361.305 67.810,361.602 68.800 C 361.900 69.790,362.254 70.780,362.389 71.000 C 362.523 71.220,362.866 72.120,363.150 73.000 C 364.453 77.038,365.430 78.364,367.118 78.387 C 368.143 78.401,370.000 76.761,370.000 75.842 C 370.000 75.515,370.180 75.136,370.400 75.000 C 370.620 74.864,370.800 74.313,370.800 73.776 C 370.800 73.239,370.980 72.800,371.200 72.800 C 371.420 72.800,371.600 72.361,371.600 71.824 C 371.600 71.287,371.780 70.736,372.000 70.600 C 372.220 70.464,372.400 69.943,372.400 69.443 C 372.400 68.943,372.519 68.414,372.665 68.268 C 372.905 68.029,374.318 64.385,374.553 63.400 C 374.930 61.824,375.348 61.200,376.027 61.200 C 376.452 61.200,376.800 61.020,376.800 60.800 C 376.800 60.580,377.160 60.400,377.600 60.400 C 378.040 60.400,378.400 60.220,378.400 60.000 C 378.400 59.780,378.850 59.600,379.400 59.600 C 379.950 59.600,380.400 59.420,380.400 59.200 C 380.400 58.980,380.742 58.800,381.161 58.800 C 382.129 58.800,388.558 55.773,389.179 55.025 C 390.826 53.041,388.244 48.800,385.389 48.800 C 385.065 48.800,384.800 48.620,384.800 48.400 C 384.800 48.180,384.562 48.000,384.271 48.000 C 383.980 48.000,382.675 47.492,381.371 46.871 C 380.067 46.250,378.370 45.501,377.600 45.207 C 375.931 44.567,374.336 43.227,374.647 42.724 C 374.769 42.527,374.670 42.125,374.427 41.832 C 374.183 41.539,373.370 39.432,372.619 37.150 C 370.581 30.958,369.813 28.939,369.229 28.235 C 368.502 27.359,365.884 27.401,365.162 28.300 M132.428 88.462 C 132.017 88.903,131.585 89.654,131.468 90.132 C 131.351 90.609,131.045 91.720,130.788 92.600 C 129.414 97.296,128.968 112.898,129.925 122.800 C 130.896 132.848,131.478 137.508,132.396 142.600 C 133.602 149.285,133.660 148.953,130.003 156.338 C 128.188 160.002,126.570 163.360,126.406 163.800 C 125.937 165.057,125.140 166.934,124.753 167.695 C 124.559 168.077,124.400 168.741,124.400 169.171 C 124.400 169.601,124.220 170.064,124.000 170.200 C 123.780 170.336,123.600 170.876,123.600 171.400 C 123.600 171.924,123.440 172.452,123.244 172.573 C 123.049 172.694,122.792 173.379,122.673 174.096 C 122.555 174.813,122.253 176.210,122.003 177.200 C 119.495 187.120,119.212 192.204,119.597 220.400 C 119.778 233.600,119.175 240.657,116.778 253.400 C 116.287 256.012,115.759 258.278,114.357 263.800 C 114.134 264.680,113.851 265.897,113.729 266.505 C 113.607 267.113,113.349 267.708,113.154 267.829 C 112.959 267.949,112.800 268.476,112.800 269.000 C 112.800 269.524,112.620 270.064,112.400 270.200 C 112.180 270.336,112.000 270.966,112.000 271.600 C 112.000 272.234,111.820 272.864,111.600 273.000 C 111.380 273.136,111.200 273.676,111.200 274.200 C 111.200 274.724,111.020 275.264,110.800 275.400 C 110.580 275.536,110.400 276.076,110.400 276.600 C 110.400 277.124,110.220 277.664,110.000 277.800 C 109.780 277.936,109.600 278.566,109.600 279.200 C 109.600 279.834,109.440 280.452,109.244 280.573 C 109.049 280.694,108.792 281.379,108.673 282.096 C 108.555 282.813,108.254 284.210,108.004 285.200 C 107.755 286.190,107.460 287.540,107.348 288.200 C 107.237 288.860,106.988 289.760,106.795 290.200 C 106.603 290.640,106.352 291.720,106.238 292.600 C 106.124 293.480,105.844 295.280,105.615 296.600 C 103.513 308.732,102.868 329.936,104.501 333.200 C 105.649 335.496,110.630 340.896,114.268 343.789 C 114.828 344.235,115.762 345.005,116.343 345.500 C 116.925 345.994,117.543 346.399,117.717 346.400 C 117.891 346.400,118.420 346.760,118.892 347.200 C 119.364 347.640,119.987 348.000,120.275 348.000 C 120.564 348.000,120.800 348.180,120.800 348.400 C 120.800 348.620,121.160 348.800,121.600 348.800 C 122.040 348.800,122.400 348.948,122.400 349.129 C 122.400 349.490,125.973 351.200,126.728 351.200 C 126.988 351.200,127.200 351.380,127.200 351.600 C 127.200 351.820,127.639 352.000,128.176 352.000 C 128.713 352.000,129.251 352.159,129.370 352.352 C 129.490 352.546,130.086 352.824,130.694 352.970 C 131.302 353.116,132.430 353.398,133.200 353.597 C 139.839 355.309,139.249 355.275,165.700 355.476 C 180.677 355.590,191.200 355.522,191.200 355.311 C 191.200 355.113,190.885 354.602,190.500 354.175 C 188.604 352.075,187.752 348.944,188.440 346.605 C 189.052 344.523,191.811 341.200,192.928 341.200 C 193.298 341.200,193.600 341.009,193.600 340.776 C 193.600 339.983,206.079 340.789,206.980 341.641 C 207.189 341.838,207.763 342.000,208.256 342.000 C 208.749 342.000,209.264 342.180,209.400 342.400 C 209.536 342.620,209.972 342.800,210.368 342.800 C 213.388 342.800,221.778 348.797,226.518 354.344 L 227.636 355.652 256.318 355.520 C 284.222 355.392,285.055 355.366,287.022 354.562 C 290.636 353.086,291.600 352.610,291.600 352.302 C 291.600 352.136,291.825 352.000,292.101 352.000 C 292.755 352.000,296.763 348.193,297.998 346.400 C 298.528 345.630,299.060 344.910,299.181 344.800 C 299.392 344.607,301.042 341.636,301.624 340.400 C 301.879 339.859,302.232 339.027,303.239 336.600 C 303.668 335.564,305.013 330.417,305.589 327.600 C 306.269 324.281,306.586 297.309,306.020 291.000 C 305.211 281.985,304.254 274.956,302.778 267.200 C 302.548 265.990,302.259 264.324,302.137 263.497 C 302.015 262.671,301.755 261.895,301.558 261.774 C 301.361 261.652,301.200 260.944,301.200 260.200 C 301.200 259.456,301.020 258.736,300.800 258.600 C 300.580 258.464,300.400 257.971,300.400 257.505 C 300.400 256.604,299.735 254.261,299.151 253.105 C 298.958 252.723,298.800 251.969,298.800 251.429 C 298.800 250.889,298.620 250.336,298.400 250.200 C 298.180 250.064,298.000 249.423,298.000 248.776 C 298.000 248.129,297.820 247.600,297.600 247.600 C 297.380 247.600,297.200 246.981,297.200 246.224 C 297.200 245.467,297.020 244.736,296.800 244.600 C 296.580 244.464,296.400 243.834,296.400 243.200 C 296.400 242.566,296.220 241.936,296.000 241.800 C 295.780 241.664,295.600 240.944,295.600 240.200 C 295.600 239.456,295.420 238.736,295.200 238.600 C 294.980 238.464,294.800 237.654,294.800 236.800 C 294.800 235.946,294.620 235.136,294.400 235.000 C 294.180 234.864,294.000 233.964,294.000 233.000 C 294.000 232.036,293.820 231.136,293.600 231.000 C 293.380 230.864,293.200 229.604,293.200 228.200 C 293.200 226.796,293.020 225.536,292.800 225.400 C 292.580 225.264,292.400 223.644,292.400 221.800 C 292.400 219.956,292.220 218.336,292.000 218.200 C 291.750 218.046,291.600 214.137,291.600 207.800 C 291.600 201.463,291.750 197.554,292.000 197.400 C 292.500 197.091,292.550 176.540,292.052 176.232 C 291.860 176.114,291.596 174.618,291.464 172.908 C 291.333 171.199,291.049 168.990,290.834 168.000 C 290.619 167.010,290.239 165.210,289.990 164.000 C 289.136 159.857,285.603 149.875,283.934 146.888 C 283.530 146.166,283.200 145.326,283.200 145.021 C 283.200 144.716,283.065 144.407,282.900 144.333 C 282.630 144.213,281.422 142.111,280.240 139.703 C 279.998 139.210,279.665 138.805,279.500 138.803 C 279.335 138.801,279.200 138.610,279.200 138.378 C 279.200 138.146,278.460 136.866,277.556 135.535 C 276.169 133.493,275.978 132.979,276.339 132.257 C 276.771 131.391,277.049 129.006,277.441 122.800 C 277.560 120.930,277.824 119.229,278.028 119.020 C 278.423 118.617,278.566 95.600,278.174 95.600 C 277.859 95.600,276.244 96.466,276.000 96.765 C 275.890 96.900,274.810 97.811,273.600 98.788 C 270.970 100.913,265.356 105.896,262.772 108.400 C 259.482 111.588,255.101 112.972,252.495 111.647 C 252.113 111.452,251.260 111.071,250.600 110.800 C 249.940 110.529,249.087 110.148,248.705 109.953 C 247.464 109.322,247.309 109.560,247.048 112.500 C 246.619 117.344,245.857 121.845,245.203 123.400 C 245.018 123.840,244.628 124.785,244.336 125.500 C 244.044 126.215,243.669 126.800,243.502 126.800 C 243.336 126.800,243.200 127.023,243.200 127.296 C 243.200 128.204,238.489 132.264,236.153 133.370 C 220.330 140.862,193.242 134.855,187.407 122.559 C 186.190 119.993,185.886 118.419,185.637 113.400 C 185.505 110.721,185.257 108.821,185.076 109.100 C 184.898 109.375,184.324 109.600,183.800 109.600 C 183.276 109.600,182.736 109.780,182.600 110.000 C 182.464 110.220,182.091 110.400,181.772 110.400 C 181.453 110.400,180.383 110.760,179.396 111.200 C 178.408 111.640,176.792 112.360,175.804 112.800 C 171.406 114.759,168.250 113.811,163.273 109.034 C 151.040 97.292,141.546 90.383,134.488 88.087 C 133.359 87.720,133.071 87.772,132.428 88.462 M217.121 166.159 C 218.969 167.115,219.595 168.174,220.209 171.383 C 221.479 178.020,224.719 181.278,230.658 181.891 C 236.910 182.536,238.689 189.518,233.207 191.893 C 231.991 192.419,231.600 192.815,231.600 193.520 C 231.600 197.796,223.603 206.400,219.628 206.400 C 219.199 206.400,218.736 206.580,218.600 206.800 C 218.262 207.347,212.591 207.306,210.828 206.745 C 204.768 204.814,200.251 200.460,198.522 194.882 C 197.815 192.599,197.086 191.637,196.047 191.613 C 194.790 191.584,193.601 189.480,193.600 187.286 C 193.600 184.006,195.434 182.000,198.434 182.000 C 203.460 182.000,208.581 177.772,209.335 173.000 C 210.100 168.159,210.648 167.004,212.581 166.162 C 214.176 165.468,215.782 165.466,217.121 166.159 M170.059 170.900 C 172.712 172.276,175.200 175.102,175.200 176.738 C 175.200 177.186,175.380 177.664,175.600 177.800 C 175.820 177.936,176.000 178.926,176.000 180.000 C 176.000 181.074,175.820 182.064,175.600 182.200 C 175.380 182.336,175.200 182.814,175.200 183.262 C 175.200 189.446,163.313 192.108,158.508 187.000 C 155.683 183.997,154.771 174.800,157.298 174.800 C 157.464 174.800,157.600 174.539,157.600 174.220 C 157.600 173.902,158.275 173.137,159.100 172.520 C 159.925 171.904,160.660 171.265,160.733 171.100 C 160.807 170.935,161.201 170.800,161.610 170.800 C 162.018 170.800,162.464 170.620,162.600 170.400 C 163.097 169.596,168.205 169.938,170.059 170.900 M267.736 170.599 C 276.118 174.101,275.816 185.834,267.251 189.433 C 260.398 192.313,252.237 185.148,254.000 177.799 C 254.290 176.590,254.679 175.600,254.864 175.600 C 255.049 175.600,255.200 175.344,255.200 175.031 C 255.200 171.733,263.461 168.813,267.736 170.599 M141.427 251.300 C 145.263 253.901,146.014 257.735,143.641 262.608 C 142.893 264.144,141.666 266.660,140.915 268.200 C 137.772 274.637,132.764 276.234,127.850 272.368 C 123.923 269.279,124.852 262.646,130.428 253.957 C 133.061 249.854,137.657 248.744,141.427 251.300 M294.799 267.400 C 296.167 268.107,297.671 270.041,298.376 272.000 C 298.654 272.770,299.023 273.760,299.196 274.200 C 301.466 279.954,301.178 290.215,298.589 295.806 C 295.781 301.869,290.756 306.300,284.372 308.343 C 282.602 308.909,273.343 308.956,273.000 308.400 C 272.864 308.180,272.392 308.000,271.951 308.000 C 267.402 308.000,256.566 298.902,253.968 292.900 C 253.658 292.185,253.292 291.600,253.155 291.600 C 251.689 291.600,252.806 286.341,254.554 285.008 C 257.591 282.692,260.523 283.823,263.164 288.328 C 270.150 300.248,283.399 302.342,288.722 292.369 C 289.205 291.464,289.600 290.392,289.600 289.986 C 289.600 289.580,289.780 289.136,290.000 289.000 C 290.227 288.860,290.400 286.870,290.400 284.400 C 290.400 281.930,290.227 279.940,290.000 279.800 C 289.780 279.664,289.600 279.111,289.600 278.571 C 289.600 278.031,289.441 277.277,289.247 276.895 C 288.071 274.583,287.800 273.705,287.800 272.200 C 287.800 268.301,291.558 265.723,294.799 267.400 M196.000 275.200 C 196.000 275.420,196.193 275.600,196.429 275.600 C 198.103 275.600,200.695 282.211,201.632 288.869 C 202.807 297.229,199.074 307.570,193.336 311.850 C 192.491 312.480,191.710 313.100,191.600 313.228 C 191.097 313.811,187.345 315.524,184.772 316.345 C 182.925 316.933,176.273 316.933,174.428 316.344 C 171.248 315.328,168.542 314.224,167.538 313.532 C 166.954 313.129,166.279 312.800,166.038 312.800 C 165.797 312.800,165.600 312.620,165.600 312.400 C 165.600 312.180,165.422 312.000,165.205 312.000 C 164.323 312.000,158.539 306.436,157.380 304.473 C 156.966 303.773,156.486 303.200,156.314 303.200 C 156.141 303.200,156.000 302.945,156.000 302.633 C 156.000 302.322,155.865 302.007,155.700 301.933 C 153.523 300.966,153.062 295.488,154.981 293.393 C 157.842 290.270,161.723 291.512,164.378 296.400 C 165.477 298.425,165.399 298.327,168.384 301.377 C 169.586 302.604,171.071 303.830,171.684 304.101 C 172.298 304.373,172.800 304.731,172.800 304.898 C 172.800 305.064,173.072 305.200,173.405 305.200 C 173.738 305.200,174.323 305.361,174.705 305.557 C 179.911 308.235,186.932 305.655,189.587 300.088 C 190.082 299.050,190.648 297.887,190.844 297.505 C 191.337 296.543,191.299 287.308,190.800 287.000 C 190.580 286.864,190.400 286.311,190.400 285.771 C 190.400 285.231,190.220 284.432,190.000 283.995 C 189.780 283.558,189.420 282.842,189.200 282.405 C 187.442 278.914,189.952 274.800,193.840 274.800 C 195.028 274.800,196.000 274.980,196.000 275.200 M128.812 284.100 C 132.484 285.954,133.991 290.653,132.505 295.610 C 132.275 296.374,131.894 298.260,131.657 299.800 C 131.420 301.340,131.004 304.040,130.732 305.800 C 130.427 307.773,130.229 313.525,130.217 320.800 C 130.196 333.262,130.176 333.413,128.250 335.538 C 125.685 338.368,120.648 338.584,117.474 336.000 C 114.455 333.542,113.375 323.935,114.573 310.200 C 115.379 300.962,115.573 299.531,117.143 291.200 C 118.392 284.570,123.541 281.438,128.812 284.100 M46.400 297.264 C 42.266 299.649,40.800 302.406,40.800 307.796 L 40.800 311.600 51.200 311.600 L 61.600 311.600 61.600 307.796 C 61.600 302.350,60.093 299.564,55.888 297.237 C 53.779 296.070,48.444 296.085,46.400 297.264 M40.805 327.500 C 40.808 330.525,40.919 333.405,41.052 333.900 L 41.293 334.800 52.018 334.800 L 62.742 334.800 62.533 332.500 C 62.417 331.235,62.161 329.570,61.964 328.800 C 61.766 328.030,61.603 326.185,61.602 324.700 L 61.600 322.000 51.200 322.000 L 40.800 322.000 40.805 327.500 M44.203 345.900 C 44.361 346.285,44.592 346.958,44.717 347.395 C 46.031 352.014,52.899 362.209,58.194 367.400 C 61.508 370.649,69.296 376.400,70.382 376.400 C 70.612 376.400,70.800 376.536,70.800 376.702 C 70.800 376.869,71.385 377.256,72.100 377.564 C 72.815 377.871,74.210 378.473,75.200 378.901 C 76.190 379.329,77.360 379.818,77.800 379.986 C 78.240 380.155,79.050 380.487,79.600 380.723 C 81.445 381.518,87.336 382.801,90.984 383.203 C 92.973 383.422,95.368 383.688,96.306 383.794 C 98.036 383.989,98.375 383.098,97.217 381.400 C 97.067 381.180,96.714 380.190,96.433 379.200 C 96.152 378.210,95.760 377.087,95.561 376.705 C 95.362 376.323,95.200 375.659,95.200 375.229 C 95.200 374.799,95.020 374.336,94.800 374.200 C 94.580 374.064,94.400 373.524,94.400 373.000 C 94.400 372.476,94.220 371.936,94.000 371.800 C 93.780 371.664,93.600 371.034,93.600 370.400 C 93.600 369.766,93.420 369.136,93.200 369.000 C 92.980 368.864,92.800 368.234,92.800 367.600 C 92.800 366.966,92.620 366.336,92.400 366.200 C 92.180 366.064,92.000 365.412,92.000 364.750 C 92.000 362.450,91.451 361.995,87.200 360.777 C 86.210 360.493,85.229 360.112,85.020 359.930 C 84.811 359.749,84.316 359.600,83.920 359.600 C 83.524 359.600,83.200 359.420,83.200 359.200 C 83.200 358.980,82.885 358.796,82.500 358.791 C 82.115 358.786,81.350 358.430,80.800 358.000 C 80.250 357.570,79.575 357.214,79.300 357.209 C 79.025 357.204,78.800 357.032,78.800 356.827 C 78.800 356.622,78.485 356.350,78.100 356.223 C 76.684 355.756,70.514 349.892,68.766 347.351 C 67.228 345.115,67.766 345.200,55.124 345.200 C 44.605 345.200,43.932 345.243,44.203 345.900 " stroke="none" fill="#e6badb" fill-rule="evenodd"></path><path id="path2" d="M224.095 40.674 C 222.113 47.849,222.076 48.153,223.241 47.803 C 225.122 47.237,225.338 46.677,225.521 41.903 C 225.766 35.499,225.571 35.330,224.095 40.674 M226.000 56.897 C 219.406 59.819,218.942 60.095,216.909 62.316 C 213.408 66.139,211.200 71.573,211.200 76.364 L 211.200 77.970 214.300 76.626 C 227.496 70.905,226.685 71.425,227.768 68.000 C 228.689 65.086,229.013 60.244,228.431 58.100 C 227.947 56.320,227.643 56.169,226.000 56.897 M227.600 81.207 C 227.050 81.359,225.745 81.869,224.700 82.341 C 223.655 82.814,222.035 83.540,221.100 83.954 C 217.403 85.595,215.309 86.531,213.288 87.445 C 212.127 87.970,211.047 88.403,210.888 88.407 C 209.893 88.429,204.538 97.243,203.722 100.200 C 202.602 104.263,202.110 107.200,202.549 107.200 C 204.994 107.200,227.870 97.688,228.344 96.474 C 230.383 91.261,229.863 80.584,227.600 81.207 M217.321 112.114 C 210.677 114.770,205.334 117.094,205.448 117.278 C 207.115 119.976,222.968 121.160,228.193 118.977 C 230.134 118.166,231.746 107.086,229.900 107.242 C 229.625 107.265,223.964 109.458,217.321 112.114 " stroke="none" fill="#e7ce69" fill-rule="evenodd"></path><path id="path3" d="M156.519 25.315 C 155.494 26.349,154.876 26.742,154.643 26.509 C 154.509 26.376,154.400 26.567,154.400 26.933 C 154.400 27.300,154.220 27.600,154.000 27.600 C 153.780 27.600,153.600 27.960,153.600 28.400 C 153.600 28.840,153.420 29.200,153.200 29.200 C 152.978 29.200,152.800 30.267,152.800 31.600 C 152.800 32.933,152.978 34.000,153.200 34.000 C 153.420 34.000,153.600 34.276,153.600 34.613 C 153.600 35.409,156.191 38.000,156.987 38.000 C 157.324 38.000,157.600 38.180,157.600 38.400 C 157.600 40.188,164.781 37.994,165.697 35.926 C 165.971 35.307,166.331 34.800,166.498 34.800 C 166.664 34.800,166.800 33.270,166.800 31.400 C 166.800 29.400,166.635 28.000,166.400 28.000 C 166.180 28.000,166.000 27.807,166.000 27.571 C 166.000 26.979,164.951 25.982,164.648 26.286 C 164.511 26.422,164.400 26.323,164.400 26.067 C 164.400 25.810,164.040 25.600,163.600 25.600 C 163.160 25.600,162.800 25.420,162.800 25.200 C 162.800 24.617,157.108 24.722,156.519 25.315 M131.419 89.016 C 129.229 93.632,128.634 99.294,128.952 112.507 C 129.193 122.481,129.359 124.870,130.368 132.800 C 131.242 139.673,131.559 141.856,132.054 144.400 C 132.916 148.836,132.814 149.266,129.116 156.800 C 124.957 165.275,121.887 173.412,123.142 172.636 C 123.394 172.480,123.600 171.924,123.600 171.400 C 123.600 170.876,123.780 170.336,124.000 170.200 C 124.220 170.064,124.400 169.601,124.400 169.171 C 124.400 168.741,124.559 168.077,124.753 167.695 C 125.092 167.028,125.598 165.828,126.352 163.900 C 126.546 163.405,128.188 160.002,130.003 156.338 C 133.660 148.953,133.602 149.285,132.396 142.600 C 131.478 137.508,130.896 132.848,129.925 122.800 C 128.968 112.898,129.414 97.296,130.788 92.600 C 131.045 91.720,131.351 90.609,131.468 90.132 C 131.585 89.654,132.030 88.889,132.456 88.432 C 133.038 87.808,133.089 87.600,132.661 87.600 C 132.348 87.600,131.789 88.237,131.419 89.016 M134.000 88.000 C 134.330 88.213,134.899 88.391,135.266 88.394 C 135.632 88.397,137.072 88.975,138.466 89.678 C 144.946 92.945,153.311 99.471,163.273 109.034 C 168.250 113.811,171.406 114.759,175.804 112.800 C 176.792 112.360,178.408 111.640,179.396 111.200 C 180.383 110.760,181.453 110.400,181.772 110.400 C 182.091 110.400,182.464 110.220,182.600 110.000 C 182.736 109.780,183.276 109.600,183.800 109.600 C 184.324 109.600,184.898 109.375,185.076 109.100 C 185.257 108.821,185.505 110.721,185.637 113.400 C 185.886 118.419,186.190 119.993,187.407 122.559 C 193.242 134.855,220.330 140.862,236.153 133.370 C 238.489 132.264,243.200 128.204,243.200 127.296 C 243.200 127.023,243.336 126.800,243.502 126.800 C 243.669 126.800,244.044 126.215,244.336 125.500 C 244.628 124.785,245.018 123.840,245.203 123.400 C 245.857 121.845,246.619 117.344,247.048 112.500 C 247.309 109.560,247.464 109.322,248.705 109.953 C 249.087 110.148,249.940 110.529,250.600 110.800 C 251.260 111.071,252.113 111.452,252.495 111.647 C 255.101 112.972,259.482 111.588,262.772 108.400 C 265.356 105.896,270.970 100.913,273.600 98.788 C 274.810 97.811,275.890 96.900,276.000 96.765 C 276.244 96.466,277.859 95.600,278.174 95.600 C 278.566 95.600,278.423 118.617,278.028 119.020 C 277.824 119.229,277.560 120.930,277.441 122.800 C 277.049 129.006,276.771 131.391,276.339 132.257 C 275.978 132.979,276.169 133.493,277.556 135.535 C 278.460 136.866,279.200 138.146,279.200 138.378 C 279.200 138.610,279.335 138.801,279.500 138.803 C 279.665 138.805,279.998 139.210,280.240 139.703 C 281.422 142.111,282.630 144.213,282.900 144.333 C 283.065 144.407,283.200 144.716,283.200 145.021 C 283.200 145.326,283.530 146.166,283.934 146.888 C 285.603 149.875,289.136 159.857,289.990 164.000 C 290.239 165.210,290.619 167.010,290.834 168.000 C 291.049 168.990,291.333 171.199,291.464 172.908 C 291.596 174.618,291.860 176.114,292.052 176.232 C 292.550 176.540,292.500 197.091,292.000 197.400 C 291.750 197.554,291.600 201.463,291.600 207.800 C 291.600 214.137,291.750 218.046,292.000 218.200 C 292.220 218.336,292.400 219.956,292.400 221.800 C 292.400 223.644,292.580 225.264,292.800 225.400 C 293.020 225.536,293.200 226.796,293.200 228.200 C 293.200 229.604,293.380 230.864,293.600 231.000 C 293.820 231.136,294.000 232.036,294.000 233.000 C 294.000 233.964,294.180 234.864,294.400 235.000 C 294.620 235.136,294.800 235.946,294.800 236.800 C 294.800 237.654,294.980 238.464,295.200 238.600 C 295.420 238.736,295.600 239.456,295.600 240.200 C 295.600 240.944,295.780 241.664,296.000 241.800 C 296.220 241.936,296.400 242.566,296.400 243.200 C 296.400 243.834,296.580 244.464,296.800 244.600 C 297.020 244.736,297.200 245.467,297.200 246.224 C 297.200 246.981,297.380 247.600,297.600 247.600 C 297.820 247.600,298.000 248.129,298.000 248.776 C 298.000 249.423,298.180 250.064,298.400 250.200 C 298.620 250.336,298.800 250.889,298.800 251.429 C 298.800 251.969,298.958 252.723,299.151 253.105 C 299.735 254.261,300.400 256.604,300.400 257.505 C 300.400 257.971,300.580 258.464,300.800 258.600 C 301.020 258.736,301.200 259.456,301.200 260.200 C 301.200 260.944,301.361 261.652,301.558 261.774 C 301.755 261.895,302.015 262.671,302.137 263.497 C 302.259 264.324,302.548 265.990,302.778 267.200 C 304.254 274.956,305.211 281.985,306.020 291.000 C 306.586 297.309,306.269 324.281,305.589 327.600 C 304.973 330.612,303.653 335.607,303.185 336.700 C 302.973 337.195,302.596 338.095,302.347 338.700 C 301.618 340.473,299.543 344.469,299.181 344.800 C 299.060 344.910,298.528 345.630,297.998 346.400 C 296.763 348.193,292.755 352.000,292.101 352.000 C 291.825 352.000,291.600 352.136,291.600 352.302 C 291.600 352.610,290.636 353.086,287.022 354.562 C 285.055 355.366,284.222 355.392,256.318 355.520 L 227.636 355.652 226.518 354.344 C 221.778 348.797,213.388 342.800,210.368 342.800 C 209.972 342.800,209.536 342.620,209.400 342.400 C 209.264 342.180,208.749 342.000,208.256 342.000 C 207.763 342.000,207.189 341.838,206.980 341.641 C 206.079 340.789,193.600 339.983,193.600 340.776 C 193.600 341.009,193.298 341.200,192.928 341.200 C 191.811 341.200,189.052 344.523,188.440 346.605 C 187.752 348.944,188.604 352.075,190.500 354.175 C 190.885 354.602,191.200 355.113,191.200 355.311 C 191.200 355.522,180.677 355.590,165.700 355.476 C 139.249 355.275,139.839 355.309,133.200 353.597 C 132.430 353.398,131.302 353.116,130.694 352.970 C 130.086 352.824,129.490 352.546,129.370 352.352 C 129.251 352.159,128.713 352.000,128.176 352.000 C 127.639 352.000,127.200 351.820,127.200 351.600 C 127.200 351.380,126.988 351.200,126.728 351.200 C 125.973 351.200,122.400 349.490,122.400 349.129 C 122.400 348.948,122.040 348.800,121.600 348.800 C 121.160 348.800,120.800 348.620,120.800 348.400 C 120.800 348.180,120.564 348.000,120.275 348.000 C 119.987 348.000,119.364 347.640,118.892 347.200 C 118.420 346.760,117.891 346.400,117.717 346.400 C 117.543 346.399,116.925 345.994,116.343 345.500 C 115.762 345.005,114.828 344.235,114.268 343.789 C 112.526 342.404,108.272 338.236,106.701 336.376 C 103.728 332.856,103.797 333.272,103.826 319.000 C 103.843 310.663,103.732 306.897,103.508 308.200 C 102.977 311.293,103.007 332.026,103.551 337.000 C 105.169 351.813,109.269 369.524,112.997 377.800 C 113.294 378.460,113.927 379.990,114.402 381.199 C 114.877 382.408,115.453 383.623,115.682 383.899 C 116.227 384.556,191.538 384.628,197.516 383.977 C 208.388 382.794,215.038 377.851,215.513 370.600 C 215.987 363.352,207.133 356.400,197.429 356.400 C 191.714 356.400,187.783 351.663,189.183 346.463 C 192.331 334.774,219.533 342.543,227.821 357.498 C 232.153 365.316,232.264 375.751,228.085 382.297 C 226.665 384.520,224.175 384.400,271.866 384.400 C 318.840 384.400,322.984 384.262,327.590 382.538 C 344.885 376.064,340.357 358.076,321.022 356.441 C 315.247 355.952,312.391 353.880,311.768 349.727 C 310.917 344.052,314.838 340.560,321.689 340.890 C 326.280 341.111,325.776 341.764,326.391 334.800 C 327.524 321.969,326.381 304.114,323.574 290.800 C 322.690 286.604,322.625 286.353,320.568 279.200 C 319.778 276.450,318.956 273.570,318.743 272.800 C 318.529 272.030,318.198 270.860,318.007 270.200 C 312.810 252.290,310.510 230.676,312.025 214.000 C 313.580 196.881,311.834 181.327,306.794 167.400 C 305.495 163.810,302.335 157.008,300.475 153.800 C 298.603 150.570,297.298 148.423,296.097 146.600 C 294.046 143.488,293.781 142.159,294.355 137.880 C 298.218 109.110,297.111 87.600,291.766 87.600 C 288.782 87.600,281.068 92.076,273.243 98.348 C 269.953 100.984,268.160 102.586,261.600 108.750 C 258.393 111.764,256.003 112.141,251.146 110.402 C 246.252 108.650,246.549 108.451,246.224 113.700 C 245.600 123.768,242.954 129.058,236.949 132.248 C 229.141 136.395,216.795 137.265,206.300 134.408 C 205.475 134.184,204.210 133.848,203.488 133.662 C 192.881 130.929,186.858 124.028,186.500 114.200 C 186.396 111.340,186.173 108.851,186.003 108.668 C 185.634 108.269,181.986 109.474,176.600 111.775 C 173.652 113.034,173.074 113.200,171.630 113.200 C 169.094 113.200,167.284 112.128,163.247 108.235 C 161.131 106.195,158.590 103.822,157.600 102.963 C 156.610 102.103,155.710 101.294,155.600 101.165 C 153.710 98.949,143.350 91.631,138.854 89.337 C 135.904 87.832,132.132 86.793,134.000 88.000 M230.528 111.200 C 230.528 112.630,230.601 113.215,230.689 112.500 C 230.778 111.785,230.778 110.615,230.689 109.900 C 230.601 109.185,230.528 109.770,230.528 111.200 M62.000 113.902 C 62.000 114.069,61.424 114.459,60.721 114.771 C 59.156 115.463,56.000 118.551,56.000 119.389 C 56.000 119.725,55.820 120.000,55.600 120.000 C 55.380 120.000,55.200 120.540,55.200 121.200 C 55.200 121.860,55.020 122.400,54.800 122.400 C 54.569 122.400,54.400 123.667,54.400 125.400 C 54.400 127.133,54.569 128.400,54.800 128.400 C 55.020 128.400,55.200 128.940,55.200 129.600 C 55.200 130.260,55.380 130.800,55.600 130.800 C 55.820 130.800,56.000 131.056,56.000 131.368 C 56.000 132.128,59.171 135.261,60.634 135.947 C 61.275 136.247,62.113 136.652,62.495 136.847 C 63.463 137.340,70.000 137.299,70.000 136.800 C 70.000 136.580,70.234 136.400,70.520 136.400 C 71.256 136.400,73.193 135.459,73.197 135.100 C 73.199 134.935,73.404 134.800,73.653 134.800 C 74.220 134.800,75.497 133.354,75.815 132.352 C 75.946 131.939,76.222 131.600,76.427 131.600 C 76.632 131.600,76.800 131.240,76.800 130.800 C 76.800 130.360,76.980 130.000,77.200 130.000 C 77.443 130.000,77.600 128.200,77.600 125.400 C 77.600 122.600,77.443 120.800,77.200 120.800 C 76.980 120.800,76.800 120.440,76.800 120.000 C 76.800 119.560,76.620 119.200,76.400 119.200 C 76.180 119.200,76.000 118.975,76.000 118.700 C 75.998 117.580,72.329 114.400,71.038 114.400 C 70.687 114.400,70.400 114.220,70.400 114.000 C 70.400 113.759,68.733 113.600,66.200 113.600 C 63.890 113.600,62.000 113.736,62.000 113.902 M212.581 166.162 C 210.648 167.004,210.100 168.159,209.335 173.000 C 208.581 177.772,203.460 182.000,198.434 182.000 C 195.434 182.000,193.600 184.006,193.600 187.286 C 193.601 189.480,194.790 191.584,196.047 191.613 C 197.086 191.637,197.815 192.599,198.522 194.882 C 200.251 200.460,204.768 204.814,210.828 206.745 C 212.435 207.257,218.250 207.367,218.544 206.891 C 218.649 206.721,217.085 206.570,215.067 206.556 C 207.204 206.502,201.076 201.737,198.779 193.892 C 198.306 192.275,197.970 191.863,196.572 191.186 C 191.795 188.874,193.390 183.479,199.141 182.493 C 205.951 181.325,209.463 177.653,210.267 170.860 C 211.025 164.466,219.600 164.930,219.600 171.365 C 219.600 176.814,224.020 181.295,230.624 182.542 C 234.802 183.331,236.570 185.273,235.823 188.251 C 235.475 189.638,233.480 191.600,232.418 191.600 C 231.954 191.600,231.516 191.825,231.444 192.100 C 229.758 198.537,226.619 202.689,221.600 205.120 C 220.170 205.813,219.317 206.384,219.704 206.390 C 223.563 206.446,231.600 197.750,231.600 193.520 C 231.600 192.815,231.991 192.419,233.207 191.893 C 238.689 189.518,236.910 182.536,230.658 181.891 C 224.719 181.278,221.479 178.020,220.209 171.383 C 219.257 166.408,216.441 164.481,212.581 166.162 M162.600 170.400 C 162.464 170.620,162.018 170.800,161.610 170.800 C 161.201 170.800,160.807 170.935,160.733 171.100 C 160.660 171.265,159.925 171.904,159.100 172.520 C 158.275 173.137,157.600 173.902,157.600 174.220 C 157.600 174.539,157.464 174.800,157.298 174.800 C 154.771 174.800,155.683 183.997,158.508 187.000 C 163.313 192.108,175.200 189.446,175.200 183.262 C 175.200 182.814,175.380 182.336,175.600 182.200 C 175.820 182.064,176.000 181.074,176.000 180.000 C 176.000 178.926,175.820 177.936,175.600 177.800 C 175.380 177.664,175.200 177.186,175.200 176.738 C 175.200 175.102,172.712 172.276,170.059 170.900 C 168.205 169.938,163.097 169.596,162.600 170.400 M259.800 170.594 C 258.320 171.247,255.200 174.256,255.200 175.031 C 255.200 175.344,255.049 175.600,254.864 175.600 C 254.095 175.600,253.454 179.933,253.962 181.699 C 257.434 193.783,273.791 192.269,273.711 179.870 C 273.665 172.638,266.301 167.728,259.800 170.594 M168.440 170.868 C 178.792 174.432,176.660 189.378,165.800 189.378 C 157.883 189.378,153.620 180.987,158.143 174.307 C 160.140 171.357,165.074 169.709,168.440 170.868 M266.877 170.870 C 273.881 172.969,275.580 182.971,269.695 187.459 C 263.305 192.334,254.542 187.879,254.631 179.800 C 254.702 173.240,260.551 168.975,266.877 170.870 M122.081 174.600 C 120.992 178.677,120.715 179.856,120.351 181.952 C 118.640 191.795,118.444 196.237,118.932 214.000 C 119.376 230.117,118.721 239.919,116.383 252.200 C 115.145 258.699,113.949 263.544,112.383 268.400 C 109.311 277.928,106.400 288.380,106.400 289.883 C 106.400 291.032,107.123 289.954,107.325 288.503 C 107.440 287.676,107.743 286.190,107.996 285.200 C 108.250 284.210,108.555 282.813,108.673 282.096 C 108.792 281.379,109.049 280.694,109.244 280.573 C 109.440 280.452,109.600 279.834,109.600 279.200 C 109.600 278.566,109.780 277.936,110.000 277.800 C 110.220 277.664,110.400 277.124,110.400 276.600 C 110.400 276.076,110.580 275.536,110.800 275.400 C 111.020 275.264,111.200 274.724,111.200 274.200 C 111.200 273.676,111.380 273.136,111.600 273.000 C 111.820 272.864,112.000 272.234,112.000 271.600 C 112.000 270.966,112.180 270.336,112.400 270.200 C 112.620 270.064,112.800 269.524,112.800 269.000 C 112.800 268.476,112.959 267.949,113.154 267.829 C 113.349 267.708,113.607 267.113,113.729 266.505 C 113.851 265.897,114.142 264.635,114.375 263.700 C 114.609 262.765,114.980 261.280,115.200 260.400 C 117.019 253.122,118.121 246.707,119.046 238.000 C 119.591 232.880,119.715 228.934,119.601 220.400 C 119.230 192.560,119.560 185.658,121.599 178.600 C 121.790 177.940,122.160 176.656,122.422 175.746 C 122.683 174.837,122.810 173.847,122.703 173.546 C 122.596 173.246,122.316 173.720,122.081 174.600 M212.446 186.405 C 211.261 187.492,209.769 188.610,209.130 188.891 C 207.553 189.582,207.336 190.802,208.400 193.000 C 211.078 198.532,217.682 198.873,220.964 193.650 C 222.712 190.868,222.587 190.158,220.048 188.422 C 218.812 187.576,217.271 186.325,216.625 185.642 C 215.111 184.042,215.000 184.062,212.446 186.405 M290.337 267.667 C 288.529 268.715,287.800 270.018,287.800 272.200 C 287.800 273.705,288.071 274.583,289.247 276.895 C 289.441 277.277,289.600 278.031,289.600 278.571 C 289.600 279.111,289.780 279.664,290.000 279.800 C 290.227 279.940,290.400 281.930,290.400 284.400 C 290.400 286.870,290.227 288.860,290.000 289.000 C 289.780 289.136,289.600 289.580,289.600 289.986 C 289.600 290.392,289.205 291.464,288.722 292.369 C 283.399 302.342,270.150 300.248,263.164 288.328 C 260.523 283.823,257.591 282.692,254.554 285.008 C 252.806 286.341,251.689 291.600,253.155 291.600 C 253.292 291.600,253.658 292.185,253.968 292.900 C 256.566 298.902,267.402 308.000,271.951 308.000 C 272.392 308.000,272.864 308.180,273.000 308.400 C 273.343 308.956,282.602 308.909,284.372 308.343 C 290.756 306.300,295.781 301.869,298.589 295.806 C 301.178 290.215,301.466 279.954,299.196 274.200 C 299.023 273.760,298.654 272.770,298.376 272.000 C 296.782 267.574,293.524 265.818,290.337 267.667 M295.376 268.453 C 301.277 273.095,301.627 290.794,295.983 299.201 C 286.079 313.951,264.176 310.509,254.466 292.675 C 252.517 289.097,252.932 286.380,255.640 284.980 C 258.200 283.655,260.683 284.850,262.414 288.241 C 266.335 295.920,275.933 300.951,282.440 298.738 C 289.642 296.288,293.070 286.225,289.779 277.200 C 288.519 273.746,288.142 270.500,288.894 269.582 C 290.608 267.487,293.507 266.982,295.376 268.453 M190.240 276.240 C 188.709 277.771,188.247 280.512,189.200 282.405 C 189.420 282.842,189.780 283.558,190.000 283.995 C 190.220 284.432,190.400 285.231,190.400 285.771 C 190.400 286.311,190.580 286.864,190.800 287.000 C 191.299 287.308,191.337 296.543,190.844 297.505 C 190.648 297.887,190.082 299.050,189.587 300.088 C 186.932 305.655,179.911 308.235,174.705 305.557 C 174.323 305.361,173.738 305.200,173.405 305.200 C 173.072 305.200,172.800 305.064,172.800 304.898 C 172.800 304.731,172.298 304.373,171.684 304.101 C 171.071 303.830,169.586 302.604,168.384 301.377 C 165.399 298.327,165.477 298.425,164.378 296.400 C 161.723 291.512,157.842 290.270,154.981 293.393 C 153.062 295.488,153.523 300.966,155.700 301.933 C 155.865 302.007,156.000 302.322,156.000 302.633 C 156.000 302.945,156.141 303.200,156.314 303.200 C 156.486 303.200,156.966 303.773,157.380 304.473 C 158.539 306.436,164.323 312.000,165.205 312.000 C 165.422 312.000,165.600 312.180,165.600 312.400 C 165.600 312.620,165.797 312.800,166.038 312.800 C 166.279 312.800,166.954 313.129,167.538 313.532 C 168.542 314.224,171.248 315.328,174.428 316.344 C 176.273 316.933,182.925 316.933,184.772 316.345 C 187.345 315.524,191.097 313.811,191.600 313.228 C 191.710 313.100,192.491 312.480,193.336 311.850 C 199.074 307.570,202.807 297.229,201.632 288.869 C 200.695 282.211,198.103 275.600,196.429 275.600 C 196.193 275.600,196.000 275.420,196.000 275.200 C 196.000 274.020,191.680 274.800,190.240 276.240 M196.198 276.055 C 197.756 277.122,198.697 279.136,200.473 285.200 C 202.774 293.057,199.880 304.510,194.138 310.270 C 183.618 320.822,164.213 316.494,156.164 301.800 C 155.923 301.360,155.337 300.320,154.863 299.488 C 152.817 295.902,154.818 292.274,158.727 292.481 C 161.152 292.610,161.710 293.112,164.385 297.572 C 167.500 302.766,174.369 307.200,179.301 307.200 C 189.065 307.200,194.799 295.659,190.629 284.400 C 189.165 280.448,189.007 279.432,189.622 277.947 C 190.674 275.407,193.899 274.479,196.198 276.055 M106.024 291.000 C 106.002 291.220,105.539 294.010,104.993 297.200 C 104.045 302.745,103.745 305.989,104.223 305.511 C 104.345 305.388,104.617 303.873,104.826 302.144 C 105.036 300.415,105.381 298.010,105.593 296.800 C 105.805 295.590,106.092 293.935,106.230 293.123 C 106.369 292.311,106.388 291.411,106.273 291.123 C 106.157 290.835,106.046 290.780,106.024 291.000 M48.110 295.963 C 43.121 297.246,40.331 301.462,40.076 308.100 L 39.912 312.400 51.200 312.400 L 62.488 312.400 62.324 308.100 C 61.980 299.130,55.920 293.956,48.110 295.963 M55.888 297.237 C 60.093 299.564,61.600 302.350,61.600 307.796 L 61.600 311.600 51.200 311.600 L 40.800 311.600 40.800 307.796 C 40.800 302.406,42.266 299.649,46.400 297.264 C 48.444 296.085,53.779 296.070,55.888 297.237 M40.500 321.862 C 39.472 322.283,40.204 334.574,41.299 335.269 C 42.189 335.835,63.089 335.674,63.285 335.100 C 63.379 334.825,63.223 333.610,62.939 332.400 L 62.423 330.200 62.583 332.500 L 62.742 334.800 52.018 334.800 L 41.293 334.800 41.052 333.900 C 40.919 333.405,40.808 330.525,40.805 327.500 L 40.800 322.000 51.200 322.000 L 61.600 322.000 61.640 324.900 C 61.662 326.495,61.827 328.250,62.008 328.800 C 62.217 329.435,62.311 328.340,62.268 325.800 L 62.200 321.800 51.600 321.728 C 45.770 321.689,40.775 321.749,40.500 321.862 M43.867 344.667 C 43.489 345.044,43.536 346.288,43.959 347.105 C 44.157 347.487,45.081 349.392,46.012 351.337 C 53.546 367.071,68.346 378.985,85.000 382.725 C 93.279 384.585,98.398 384.957,98.402 383.700 C 98.405 382.745,96.337 377.129,96.078 377.388 C 95.862 377.605,96.741 380.703,97.217 381.400 C 98.375 383.098,98.036 383.989,96.306 383.794 C 95.368 383.688,92.973 383.422,90.984 383.203 C 87.336 382.801,81.445 381.518,79.600 380.723 C 79.050 380.487,78.240 380.155,77.800 379.986 C 77.360 379.818,76.190 379.329,75.200 378.901 C 74.210 378.473,72.815 377.871,72.100 377.564 C 71.385 377.256,70.800 376.869,70.800 376.702 C 70.800 376.536,70.612 376.400,70.382 376.400 C 69.296 376.400,61.508 370.649,58.194 367.400 C 52.899 362.209,46.031 352.014,44.717 347.395 C 44.592 346.958,44.361 346.285,44.203 345.900 C 43.932 345.243,44.605 345.200,55.124 345.200 C 67.766 345.200,67.228 345.115,68.766 347.351 C 70.514 349.892,76.684 355.756,78.100 356.223 C 78.485 356.350,78.800 356.622,78.800 356.827 C 78.800 357.032,79.025 357.204,79.300 357.209 C 79.575 357.214,80.250 357.570,80.800 358.000 C 81.350 358.430,82.115 358.786,82.500 358.791 C 82.885 358.796,83.200 358.980,83.200 359.200 C 83.200 359.420,83.524 359.600,83.920 359.600 C 84.316 359.600,84.811 359.749,85.020 359.930 C 85.229 360.112,86.210 360.493,87.200 360.777 C 91.451 361.995,92.000 362.450,92.000 364.750 C 92.000 365.412,92.180 366.064,92.400 366.200 C 92.620 366.336,92.800 366.966,92.800 367.600 C 92.800 368.234,92.980 368.864,93.200 369.000 C 93.420 369.136,93.600 369.766,93.600 370.400 C 93.600 371.034,93.780 371.664,94.000 371.800 C 94.220 371.936,94.400 372.476,94.400 373.000 C 94.400 373.524,94.580 374.064,94.800 374.200 C 95.020 374.336,95.200 374.876,95.200 375.400 C 95.200 375.924,95.408 376.482,95.663 376.639 C 95.974 376.831,96.053 376.675,95.905 376.163 C 95.783 375.743,94.946 372.880,94.046 369.800 C 93.146 366.720,92.407 363.905,92.405 363.544 C 92.396 362.301,91.006 361.195,88.706 360.604 C 81.630 358.783,72.604 352.400,68.960 346.640 C 68.336 345.654,67.460 344.750,67.013 344.629 C 65.839 344.314,44.184 344.349,43.867 344.667 " stroke="none" fill="#ca86b4" fill-rule="evenodd"></path><path id="path4" d="M133.344 251.000 C 128.682 253.795,124.045 265.618,125.959 269.831 C 129.052 276.643,137.227 275.751,140.915 268.200 C 141.666 266.660,142.893 264.144,143.641 262.608 C 147.557 254.564,140.559 246.675,133.344 251.000 M123.002 283.495 C 120.077 284.234,117.921 287.069,117.143 291.200 C 115.573 299.531,115.379 300.962,114.573 310.200 C 113.375 323.935,114.455 333.542,117.474 336.000 C 120.648 338.584,125.685 338.368,128.250 335.538 C 130.176 333.413,130.196 333.262,130.217 320.800 C 130.229 313.525,130.427 307.773,130.732 305.800 C 131.004 304.040,131.420 301.340,131.657 299.800 C 131.894 298.260,132.275 296.374,132.505 295.610 C 134.772 288.048,129.843 281.764,123.002 283.495 " stroke="none" fill="#fbfafb" fill-rule="evenodd"></path></g></svg>